<?xml version="1.0" encoding="utf-8"?>
<!-- Generator: Adobe Illustrator 25.1.0, SVG Export Plug-In . SVG Version: 6.00 Build 0)  -->
<svg version="1.1" id="Layer_1" xmlns="http://www.w3.org/2000/svg" xmlns:xlink="http://www.w3.org/1999/xlink" x="0px" y="0px"
	 viewBox="0 0 1920 915" style="enable-background:new 0 0 1920 915;" xml:space="preserve">
<style type="text/css">
	.st0{opacity:0.1;}
	.st1{fill:#3F3D56;}
	.st2{opacity:0.8;fill:none;stroke:#D4AD67;stroke-width:2;stroke-miterlimit:10;enable-background:new    ;}
	.st3{fill:#D4AD67;}
</style>
<g id="undraw_connected_world_wuay" transform="translate(7645.435 -6036.394)" class="st0">
	<path id="Path_1102" class="st1" d="M-7059,6204.2c-0.5-4-1.5-7.9-3-11.6c-0.4-1.4-1.4-2.6-2.7-3.3c-0.9-0.2-1.8-0.2-2.6,0
		l-13.6,2.1c-1.1,0-2.2,0.5-3.1,1.2c-1.8,1.9,0,4.9-0.1,7.4c-0.1,2.9-2.6,5.2-5.4,6c-2.8,0.6-5.8,0.5-8.6-0.1l-19-2.9
		c5.6-1.8,10.6-5.1,14.4-9.6c2.5-3,3.8-8.5,0.2-9.9c-1.1-0.3-2.2-0.4-3.3-0.3c-8.6,0.1-15.4-7.1-23.4-10.1
		c-10.6-3.7-22.3-0.2-29.1,8.7l10.1,0.5c1-0.1,1.9,0.2,2.7,0.7c2.2,1.8-0.5,5.3-0.2,8.2c0.4,3.7,5.3,4.5,9,4.9s8.4,3.4,6.6,6.7
		c-18.6,6.4-37.6-12.5-57.1-10.2c-5,0.6-9.6,2.5-14.5,3.8c-29.5,7.5-60-12.5-90.2-8.2c-6.7,1.1-13.3,2.9-19.7,5.2
		c-4.1,1.3-8.4,2.8-11.4,5.9s-4.1,8.5-1.3,11.7c-7.8,0.6-15.6-0.1-23.2-2.2c4.1,2.3,6.7,6.7,6.7,11.4c-12.2,2-24,5.6-35.2,10.7
		c2.1,3.5,4.5,6.7,7.3,9.7l-15.4,9.9c5.2,1.3,7.9,8.4,4.9,12.8c5.4-2.4,8.7-8.6,14.5-9.9c3.8-0.8,7.6,0.7,11.2,2.2
		c3.6,1.5,7.5,2.9,11.2,1.8c3.7-1.1,6.4-5.9,4.1-9c15.9-4.6,32.2-7.2,48.8-7.6c1.3-0.2,2.6,0.1,3.7,0.7c2.1,1.5,1.6,4.7,1.5,7.3
		c-0.1,2.6,1.9,6,4.3,4.9c-2.7,2.4-0.4,6.9,2.2,9.4c2.6,2.5,5.8,6,4.2,9.2c-0.4,0.9-1.1,1.5-1.5,2.4c-1.2,2.5,0.7,5.5,2.9,7.2
		c2.2,1.7,5,2.9,6.5,5.2c1.6,2.3,0.9,6.4-1.9,6.7l-7.9-10c-2.7,2.8-4.6,6.3-5.3,10.1c8.4,6.9,9.7,20.8,2.6,29.1
		c-3.6,4.2-8.7,6.8-13.1,10.1s-8.6,8-8.6,13.5c0,9.6-0.8,18.5,2.8,27.3c6.6,16.4,14.2,32.3,22.8,47.7c2.3,4,5.2,8.5,9.8,9.2
		c-5.8-14.1-11-28.4-15.6-42.9c3,0,6.5,0.3,8.3,2.7c1.5,2,1.1,4.8,1.6,7.2c0.6,2.4,1.5,4.6,2.9,6.7l27.6,49.2
		c2.3,4.1,4.9,8.5,9.3,10.1c2.8,1.1,6,0.9,8.6,2.4c2,1.2,3.4,3.3,5.4,4.4c5.8,3.2,13.9-2.9,19.4,0.9c1.6,1.1,2.5,2.8,4,4
		c5,4.4,13.3,1.4,19.1,4.7c3.7,2.1,5.7,6.3,7.7,10.1c5,9.5,13.1,18.8,23.8,19.6c3.4,0.2,6.8-0.4,10.1,0.3c3.3,0.7,6.5,3.6,6,6.9
		c-0.9,5.7,1.9,12,1.2,17.7c-1.4,10.4-16.2,15-17.5,25.5c-0.3,2.3,0.2,4.6-0.4,6.9c-0.7,2.7-2.7,5-3.5,7.7
		c-1.4,5.2,2.3,10.3,6.4,13.8s8.9,6.5,11.1,11.3c2.4,5.1,1.2,11.1,2,16.8c1.7,12.2,12.2,21.3,23.1,27.2c3.3,1.8,6.9,3.5,9,6.6
		c2.8,4,2.5,9.4,3.5,14.2c2.3,11.8,12.2,21.5,12.5,33.6c0.2,8.5-4.6,16.3-7.4,24.4c-5.4,15.6-3.7,32.8,4.6,47.1
		c2.1,3.6,4.7,7,6.2,10.9c2.7,6.9,1.8,14.8,4.3,21.8c3.3,9.3,12.2,16.9,11.4,26.7c4.1,8.5,13.1,12.6,22.1,15.1l16.2,4.5
		c3.1,0.9,6.4,1.7,9.5,1.1s6.2-3.3,6.1-6.5c-8-1.8-16.2-3.7-22.7-8.5c-6.6-4.8-11-13.5-8.6-21.2c1.2-3.6,3.6-7.8,1.3-10.7
		c-1.3-1.7-3.8-2.1-5.3-3.7c-2.4-2.4-1.5-6.5,0.1-9.4c1.7-2.9,4.1-5.5,4.8-8.8c0.7-3.8-1-7.6-4.3-9.6c3-1.1,5.7-2.9,8-5.2
		c2.1-2.4,3.1-6.1,1.4-8.9c4.9,0.6,10.8,0.9,14-2.8c2.6-3,2.4-7.5,1.4-11.4s-2.7-7.6-2.8-11.5c11.4,0.5,22.8,0.2,34.1-1.2
		c-1.6-5.5-5.4-10.2-10.4-13c5.1-0.9,9.8-7,11.4-11.9c1.6-4.9,1.2-10.3,0.2-15.4c-0.4-1.3-0.4-2.7-0.2-4c0.6-1.8,2.4-3,4.1-3.9
		l25.4-14.6c1.5-0.8,2.9-1.8,4.1-3c2.7-3.1,2.3-7.9,0.9-11.7c-1.4-3.9-3.6-7.5-4.1-11.6c-1.6-12.2,11.5-20.9,15.9-32.4
		c1.7-4.5,2.1-9.4,2.4-14.2c0.4-5.2,0.4-11.2-3.6-14.5c-3.8-3.2-9.8-2.5-13.7-5.5c-3.7-2.7-4.9-8-8.9-10.2c-3.6-2-8.2-0.7-12.2-1.7
		c-7.1-1.7-11.6-9.8-18.8-10.6c-4.1-0.4-8.7,1.6-12.1-0.8c-3-2.1-3.1-6.3-3.6-9.9c-2-11.4-10.9-20.3-22.3-22.4
		c-4.2-0.7-8.8-0.4-12.4-2.7c-3.6-2.3-5.3-6.7-8.1-10c-4.6-5.2-11.8-7.1-18.6-8.7l-27.6-6.5c-4.9-1.2-11.2-1.8-13.8,2.5
		c-0.8,1.6-1.3,3.4-1.6,5.1c-2,6.6-8.1,11.2-15,11.3c-2.3-3.9-6.1-6.8-10.5-8.1c-2.8-0.8-5.8-0.9-8.5-2c-5.9-2.9-8.3-10-5.5-15.9
		c0.1-0.2,0.2-0.4,0.3-0.6c3.3-5.8,2.2-13.1-2.5-17.8c-4.7-4.2-11.5-5.2-17.8-4.8c-1.6-3.6,1.1-7.6,4.1-10.3c3-2.6,6.6-5.2,7.2-9.1
		c1-6.1-6.8-10.8-12.8-9s-9.7,7.6-12.2,13.3c-1.4,3.3-2.7,6.7-4.9,9.5c-2.3,2.8-5.9,4.7-9.4,3.8c-4.9-1.3-6.8-7.1-7.9-12
		c-1.5-6.6-2.9-13.3-2.6-20.1c0.3-6.8,2.6-13.7,7.6-18.3c8.1-7.5,20.6-6.7,31.6-5.5c-2.6-2.9-2-7.8,0.8-10.6c3-2.6,7.1-3.6,10.9-2.7
		c3.3,0.7,6.3,2.5,8.5,5.1c3.1,3.8,4,8.9,6.4,13.3c2.4,4.3,7.7,8,12,5.7c3.7-2,4.3-7.2,3.4-11.3c-0.9-4.1-2.9-8.2-2.6-12.4
		c0.6-8.1,9-12.9,16.4-16.3c7.4-3.3,15.9-7.8,17-15.8c0-1.6,0.3-3.1,0.9-4.6c0.8-1.3,2-2.4,3.3-3.1c21.6-14.3,43.5-28.7,68.2-36.5
		c1.3-0.4,1.4,0,2.7-0.3c1.8-1.1,0.6-4-1.1-5.2c-1.8-1.2-4.1-2.1-4.5-4.1c-0.3-1.5,0.6-3,0.8-4.5c0.6-3.8-3.9-7.3-7.5-5.8
		c-2-2.6,1.9-5.7,5.1-6.5c9.5-2.6,19.3-4.2,29.1-4.8c1.1-0.2,2.3,0,3.3,0.6c1.7,1.1,1.4,3.8,0.3,5.4c-1.2,1.6-3,2.7-4.5,4
		c-3.3,3.2-4.5,7.9-3.2,12.2c5.1,2.6,10.7,5.3,16.4,4.4c5.7-0.9,10.8-7.3,8.1-12.4c-2.5-4.8-10-5.8-11.3-11.1
		c-1.5-6.1,7.1-11.5,5.2-17.5c-0.9-2.6-3.5-4.2-5.5-6.1c-4.8-4.7-6.3-12-3.6-18.2c-6.6,1.2-13.4-1-18.2-5.7
		c-4.3-4.4-7.8-11.3-14-11.1c-5.7,0.2-10.6,6.8-15.9,4.8c-1.3-0.5-2.7-1.5-3.9-0.9c-0.8,0.5-1.4,1.4-1.5,2.4
		c-1.3,6.4,1,13.8-2.5,19.3c-3.8,6.1-12.7,6.9-17.3,12.4c-2.5,3-3.5,7-5.8,10.1s-7.2,5.1-10,2.4c2.8-5.8,1.3-12.7-3.7-16.7
		c-2.6-1.7-5.3-3-8.3-4c-3.3-1.4-6.3-3.1-9.2-5.1c-1.4-0.9-2.6-2.1-3.4-3.6c-0.6-1.9-0.5-3.9,0.2-5.7c2.9-8.2,10-14.2,18.6-15.5
		c3.7-0.5,8-0.3,10.4-3.1c1.3-1.5,2-3.7,3.8-4.3c1.2-0.2,2.4-0.1,3.6,0.4l13.8,4.9c1.5,0.7,3.2,1,4.9,0.8c1.7-0.2,3-1.8,2.9-3.5
		c-0.4-2.3-4-3.4-3.6-5.7c0.2-0.7,0.6-1.4,1.2-1.9c10.1-10.7,24.4-16.4,39.1-15.4c1.7,2.9-1,6.2-3.3,8.7s-4.1,6.8-1.4,8.7
		c1.1,0.6,2.4,0.9,3.7,0.8c3.4,0.5,6.7,1.5,9.8,3c4.8,2.1,9.4,4.3,14,6.8c-0.4-3-0.8-6.2,0.4-9c1.1-2.8,4.4-5,7.2-3.9
		c2.7,1.1,4.1,4.7,7.1,5c3.9,0.4,5.4-5.3,3.8-8.9s-4.8-6.5-5.1-10.5c-0.2-2.6,0.8-5.9-1.3-7.5c-0.7-0.5-1.6-0.8-2.5-0.9l-52.6-9.7
		c-3.1-0.6-7.6-0.1-7.8,3c-0.1,1.8,1.5,3.5,0.8,5.1c-0.7,1.7-3.2,1.6-5,2.2c-2.8,1-4.2,4.2-3.9,7.2c0.5,2.9,1.6,5.7,3.3,8.1
		C-7050.4,6205.9-7055.6,6205.7-7059,6204.2z"/>
	<path id="Path_1103" class="st1" d="M-7101,6159.6c-6.8-2.2-14.3,0-18.7,5.6c-0.9,1.1-1.6,2.7-0.9,3.9c1,1.8,3.7,1.1,5.6,0.4
		c2.9-1,6-1.1,8.9-0.2c1.8,0.6,3.5,1.7,5.3,2.3c1.8,0.8,3.9,0.5,5.5-0.8c1.3-1.3,1.3-3.3,1.3-5.1c0.2-1.2-0.2-2.5-1-3.4
		c-0.7-0.4-1.6-0.7-2.4-0.7c-1.9-0.4-3.6-1.4-4.9-2.8"/>
	<path id="Path_1104" class="st1" d="M-7082,6154.3c-2.4-0.1-4.4,1.7-4.6,4.1c0,0.7,0.1,1.4,0.4,2c2.3,0.6,4.7,0.8,7,0.5
		c2.4-0.4,4.3-2.1,4.9-4.5c-2.8,0.5-5.6,0-8-1.5"/>
	<path id="Path_1105" class="st1" d="M-7018.4,6145.5c-6.2,1.3-12.2,3.4-17.9,6.1c5.5,2.1,9,7.6,8.6,13.5c-0.2,1.1-0.2,2.3,0.1,3.3
		c0.7,1.6,2.6,2.2,4.2,2.6c3,0.9,6.2,1.3,9.3,1.2c3.2-0.2,6.1-1.9,7.7-4.7c0.5-1.3,1-2.6,1.6-3.8c4-6.1,16,1.3,20.3-4.6
		c1.5-2.1,1.4-5.2,3.4-6.9c1-0.7,2.2-1.2,3.5-1.3c8.7-1.7,17.5-3,26.3-3.7c4.2-0.4,9.6-1.9,9.7-6.1c-15.8-3.1-32.1-0.9-46.5,6.2
		c-5.2,2.6-12,8.1-17,4.6c-1.9-1.3-1.8-4.8-4.3-6.2C-7012.2,6144.3-7015.6,6144.9-7018.4,6145.5z"/>
	<path id="Path_1106" class="st1" d="M-6966.9,6155.2l7.4,1.4c-5.3-0.2-9.8,3.9-10,9.1c0,0.4,0,0.8,0,1.2c6.9,2.3,14.5,0.1,21.8,0.4
		s15.8,5.5,14.5,12.7c-0.4,2.2-1.6,4.3-1,6.5c0.5,1.5,1.8,2.5,2.5,3.9c1.5,2.8,0.3,6.4-1.6,9c-1.9,2.6-4.5,4.6-6.2,7.4
		c-4.2,6.8-1.8,15.6,0.7,23.2c0.7,2.9,2.1,5.6,3.9,7.9c3.7,4,9.8,4.3,15.2,4.4c4,0.1,8.5-0.1,11-3.2c3.3-4,1-10.3,3.1-15
		c2-4.3,6.9-6.1,11.5-7.4c8.3-2.4,16.7-4.4,24.5-8c9.7-4.5,18.8-11.4,29.5-12c3-0.2,6.1,0.2,8.9-0.6c2.9-0.8,5.6-3.3,5.4-6.3
		c-0.2-2.6-2.3-4.4-4-6.4c-1.7-1.9-3-4.9-1.5-6.9l28-5.2c-2-5.4-3.5-12.5,1-16c1.6-1.3,3.8-1.8,5.2-3.3c2.4-2.6,1.2-7.1-1.6-9.3
		s-6.5-2.7-10-3c-12.3-1-24.6-0.3-36.9,0.3l-72.1,4c-4.8,0.3-10.4-0.1-14.9,1.5c-3.8,1.4-6.4,4-10.7,4.9
		C-6951,6151.8-6959.7,6150.7-6966.9,6155.2z"/>
	<path id="Path_1107" class="st1" d="M-6834.5,6213.6c-0.8-0.1-1.5,0.1-2.2,0.5c-0.4,0.5-0.7,1-0.7,1.7c-0.5,2.7,0.1,5.5,1.6,7.8
		c1.6,2.3,4.2,3.6,7,3.4c3.3-0.4,5.8-3.3,8.8-4.6c4.7-2.1,24.8-5.5,10.9-12.9c-4.8-2.6-7.9-0.3-11.6,1.4
		C-6824.9,6213-6829.7,6213.9-6834.5,6213.6z"/>
	<path id="Path_1108" class="st1" d="M-6713.1,6150.9c-1.6,0.7-3,1.8-3.9,3.4c-0.8,1.6-0.3,3.6,1.3,4.5c0.6,0.2,1.2,0.3,1.9,0.3
		l6.6,0.2c2.8,0.1,6.3,0.7,7,3.4c0.6,2-0.7,4.6,0.8,6c0.6,0.5,1.4,0.8,2.2,0.9c2.2,0.6,4.4,0.6,6.6,0.2c4.8-1.3,2.3-4.2,3.8-6.8
		c2.3-4,1.9-1.6,6-3.9c3-1.7,6.9-4.7,4.4-9C-6680.7,6142.6-6706.7,6147.7-6713.1,6150.9z"/>
	<path id="Path_1109" class="st1" d="M-6583.2,6147.2l-3.8,0.5c-8.6,1.1-17.3,2.3-25.6,4.9c3.6,1.4,7.4,2.3,11.2,2.7
		c2.1,0.1,4.2,0.4,6.3,0.9c3.7,1.1,7.4,3.9,10.9,2.5c2.2-0.9,2.9-3.2,4.7-4.4c1.3-0.8,6-2.2,6.6-3
		C-6568.7,6144.4-6579.9,6146.7-6583.2,6147.2z"/>
	<path id="Path_1110" class="st1" d="M-6566.5,6164.5c-5.1,2.9-9.8,6.3-14.1,10.3c-1.8,1.7-3.6,3.8-3.5,6.2c0.2,3.3,3.7,5.2,6.7,6.4
		l12.2,5.2c1.5-2.1,0.1-5-1.4-7c-1.5-2.1-3.4-4.4-2.7-6.9c0.8-2.8,4.2-3.8,7.1-4.3c4.7-0.8,17.4-0.7,15.8-8.3
		C-6548,6157.3-6561.7,6161.9-6566.5,6164.5z"/>
	<path id="Path_1111" class="st1" d="M-6568.9,6669c-1.2,3.4-1.3,7.3,0.7,10.3c2.3,3.3,6.8,4.5,10.7,3.7c3.9-1,7.4-3.3,9.9-6.4
		c2.3-2.6,4.3-5.6,5.7-8.7c2-5,3.4-10.2,4.2-15.5l3.8-19.9c0.8-4.4,0.8-18.1-7.4-13.6c-2.2,1.2-7.4,10.8-9.7,13.5
		c-4.2,4.9-4.8,9.7-7,15.6C-6560.7,6655.4-6566.3,6661.6-6568.9,6669z"/>
	<path id="Path_1112" class="st1" d="M-6137,6770.9c-2.7-1-5.3-2.3-7.8-3.7c-2.5,6.9-3.8,14.1-3.9,21.5l18.3-10.4
		c2.8-1.6,5.9-3.7,5.8-6.9c0.1-0.8-0.3-1.6-1-2c-0.4-0.2-0.9-0.2-1.3-0.2c-2.7,0.2-5.2,1.6-7.8,2.5s-5.6,1.4-7.9,0"/>
	<path id="Path_1113" class="st1" d="M-6040.4,6777.1c-2,0.5-4,1.3-5.9,2.1c-4.2,2.1-7.1,6.2-10.8,9c-3.6,2.7-8,4.2-12.3,5.6
		c-1.3,1.1-0.7,3.4,0.7,4.3c1.5,0.8,3.2,1.2,4.8,1.1c4.4,0.1,9.1,0.1,13-2c2.2-1.4,4.2-3.1,6.1-4.9c4.6-3.8,10-6.3,15.4-8.7
		c2-0.7,3.8-1.8,5.4-3.2c3.4-3.3,3.6-8.5-1.3-9.7C-6029.1,6769.9-6036.6,6775.9-6040.4,6777.1z"/>
	<path id="Path_1114" class="st1" d="M-5997.7,6749.2c0.4-4.7-1.3-9.3-4.7-12.5c0,4.6-0.2,9.5-2.8,13.3c-1.8,2.7-4.7,4.6-6.8,7.1
		c-2,2.6-2.9,6.7-0.5,9c1.5,1.2,3.4,1.8,5.3,1.8c4.7,0.6,10.2,0.9,13.5-2.5c1.8-1.9,2.7-4.6,4.9-6c0.8-0.3,1.6-0.9,2.1-1.5
		c0.9-1.4-0.5-3.4-2.2-3.9c-1.6-0.5-3.4-0.3-5.1-0.8c-1.6-0.5-3.1-2.3-2.3-3.8"/>
	<path id="Path_1115" class="st1" d="M-6073.5,6580.2c-2.5,0.6-5,0.8-7.6,0.4c-4.2-0.8-7.5-3.9-10.9-6.5c-8.1-6.1-17.9-9.6-28-9.8
		c-9.2-0.2-18.5,2.3-27.6,0.6c0.6,3.3,3.4,5.8,6.4,7.2c3,1.5,6.3,2.2,9.3,3.6c4.8,2.3,8.7,6.3,10.8,11.2c1,2.3,1.6,4.7,3.1,6.7
		c3,4.1,8.7,4.9,13.8,4.6c6.6-0.4,13.4-2.3,19.5,0.1c4.7,1.9,8,6,11.9,9.2c3.9,3.2,9.4,5.5,13.9,3.2c-9.6-3.1-16-12-15.9-22.1
		c4.4,0.4,17.1,0.2,16.4-7.2C-6058.9,6575.2-6069.8,6579.5-6073.5,6580.2z"/>
	<path id="Path_1116" class="st1" d="M-6131.1,6631.7c0.8-4.3,5.1-8.1,3.7-12.2c-0.9-2.9-4.2-4.3-7.3-4.4c-3-0.1-6,0.8-9,0.9
		c-2-0.1-3.9-0.1-5.9,0.1c-6,1-9.7,7.2-15.3,9.5c-3.4,1.4-7.3,1.1-10.8,2c-8.1,2.1-13.2,9.8-18.8,15.9c-9.1,9.9-21,16.8-34.1,19.9
		c-4.6,1.1-9.5,1.7-13.2,4.7c-4.8,4-6,10.7-7.1,16.9c-3,17-7.5,33.7-13.6,49.8l19.2,2.5c3.6,0.5,7.4,0.9,10.9-0.2
		c2.6-1,5-2.3,7.2-3.8c8.5-5.3,18.1-8.8,28.1-10.1c5-0.7,10.3-0.8,15,1.1c4.7,1.9,8.8,6.1,9.2,11.2c4.2-1.3,8.7-0.2,11.8,2.9
		c3,3.1,5,7,5.6,11.2c0.5,2.6,1,5.8,3.4,6.9c2,0.9,4.3-0.1,6.4-0.2c7.4-0.6,13.5,8,20.8,6.5c7.8-1.6,9.7-13.2,17.3-15.6
		c4.4-1.3,10.5,0.3,12.6-3.8c1.8-3.6-1.8-7.7-1.5-11.7c0.5-4.9,6.3-7,10.8-9.1c15.4-7.2,22.8-28,15.3-43.4
		c-4.4-9.1-13.2-16.2-14.8-26.2c-1.2-7.7,1.8-16.6-3.1-22.7c-2.5-3.1-6.7-4.8-8.2-8.4c-0.9-2.3-0.6-4.9-1.1-7.4s-2.6-5-5-4.4
		c-7,1.8-9.2,23.4-13,28.7C-6121.2,6646.8-6132.9,6641.5-6131.1,6631.7z"/>
	<path id="Path_1117" class="st1" d="M-6260.3,6588.3c-2.4-0.7-5-1.3-7.3-0.4c-2.3,1-3.6,4.3-1.8,6c14.4-0.6,28.8-1.1,43.1,0.8
		c16.4,2.2,32.7,7.8,49.2,6.2c-9.4-2.8-19-5-28.7-6.7l-16.1-3.1c-4.3-0.9-8.7-1.6-13.1-2
		C-6244.3,6588.5-6251.2,6590.9-6260.3,6588.3z"/>
	<path id="Path_1118" class="st1" d="M-6245.9,6538.3c-1.2-0.1-2.7-0.2-3.3,0.8c-0.6,1,0.1,2.3-0.2,3.4c-0.4,1.5-2.4,1.9-4,1.7
		c-1.5-0.2-3.2-0.7-4.6,0.1c-1.4,1-2,2.8-1.5,4.4c0.6,1.6,1.5,3,2.7,4.2c2,2.6,4.3,4.9,6.9,6.9c4.9,3.6,11.6,5.4,14.7,10.7
		c0.4,1,1.1,1.9,2,2.7c1.5,0.9,3.4,0.2,5.1-0.5l5.6-2.6c1-0.4,1.9-1,2.6-1.8c1.3-1.7,0.5-4.2-0.6-6.1c-1.1-1.9-2.5-3.8-2.2-6
		c0.4-3.8,5.4-5.3,7.4-8.6c2.1-3.3,0.7-7.6,1-11.5c0.3-4.6,3.1-10.5-1.5-13.9c-3.9-2.9-7.7-0.2-10.5,3
		C-6232.2,6531.9-6235,6539.2-6245.9,6538.3z"/>
	<path id="Path_1119" class="st1" d="M-6211.7,6470.2c1.9,3.7,5.9,5.9,8,9.5c2.3,3.9,2,8.9,4.5,12.7c2.5,3.9,7.6,5.9,9,10.3
		c1.6,4.8-2,10.6,0.8,14.8c2.1,2.7,6,3.3,8.7,1.2c0.1-0.1,0.3-0.2,0.4-0.3c2.5-2.7,2.3-6.8-0.3-9.4c-1.7-1.5-4-2.2-5.4-3.9
		c-0.7-1-1.2-2.2-1.4-3.4c-0.8-3.6-0.6-7.2,0.4-10.7c0.4-0.9,0.5-1.9,0.3-2.8c-0.6-1.8-3.1-1.9-4.8-2.8c-3.9-1.9-3.8-7.4-3.1-11.7
		c-0.5,2.9-10.7-2-11.7-3.6c-2.1-3.2-1-9.4-1.4-13C-6212.3,6459.2-6214,6465.7-6211.7,6470.2z"/>
	<path id="Path_1120" class="st1" d="M-6314.5,6526.9c-1.9-2.1-4.7-4.3-7.2-3c-1.9,1-2.5,3.6-1.7,5.7c0.9,2,2.3,3.7,4.1,4.9
		c5.3,4.3,10.9,8.3,15.5,13.3c8.2,9,12.6,21.2,21.5,29.5c1.8,1.9,4.2,3.2,6.8,3.7c2.6,0.2,5.5-1.4,5.8-4c0.2-2.1-1.2-4.1-2.7-5.6
		c-3.5-3.8-7.3-7.2-10.5-11.2c-1.5-1.5-2.5-3.5-2.7-5.6c0-2.1,1.9-4.3,4-3.8c-2.5-0.6-4.4-4.8-8-5.6c-3.1-0.7-3.8,1.2-7.5-0.3
		C-6304.1,6541.7-6309.6,6532.4-6314.5,6526.9z"/>
	<path id="Path_1121" class="st1" d="M-6150.8,6321.6c-2-0.6-4-1.3-5.9-2.1c-5.2-1.6-12,2.2-11.3,7.6c0.5,3.6,3.8,6,5.6,9
		c2.7,4.6,2,10.4,0.6,15.5c-0.3,1.6-1,3.1-2,4.4c-1.3,1.4-2.9,2.5-4.6,3.3c-7,3.9-13.1,9.2-18.1,15.4c-0.5,0.6-0.9,1.3-1.1,2.1
		c-0.2,1.8,1.6,3.1,2.6,4.6c2.3,3.4,0.6,7.9,0.9,11.9c-0.1,1.2,0.5,2.3,1.4,3c1.4,0.7,3-0.5,3.8-1.8c2.5-4.5,0.6-11.7,5.3-13.8
		c0.9-0.4,1.9-0.6,2.5-1.4c0.9-1.2,0-3,0.5-4.5c0.7-2.2,3.7-2.3,6-2.2c4,0.2,7.9-0.4,11.7-1.6c1.5-0.4,2.8-1.1,3.9-2.2
		c1.4-1.7,1.3-4.2,1-6.4c-1.4-11-4.9-21.6-10.2-31.3c4.1,0.5,8.5,1,12-1.2c2-1.2,4.3-4.8,3.4-7.2
		C-6144.5,6319.1-6147.3,6322.3-6150.8,6321.6z"/>
	<path id="Path_1122" class="st1" d="M-6673.7,6382c0.5,2.6,1,5.4,0.1,7.9s-3.6,4.6-6.1,3.9c-2-0.6-3.1-2.6-4.5-4.1
		c-7.8-8.4-25.4-3.6-30.3-14c-2-4.3-0.6-9.4-2-13.9c-1.7-5.3-6.9-8.8-12.5-8.5c-2.5,0.4-4.9,1.1-7.2,2.1
		c-15.3,6.1-31.3,10.1-47.6,11.9c-3.1,0.2-6.2,0.7-9.1,1.7c-6.7,2.4-11.3,8.7-14.6,15c-3.3,6.3-5.7,13.2-10,18.9
		c-4.6,5.9-11,10.1-17,14.6c-2.3,1.5-4.2,3.5-5.6,5.9c-1.3,2.7-1.2,5.8-1.1,8.8l1.2,36.1c0.2,4.6,0.4,9.5,2.4,13.6
		c2.6,5.2,7.7,8.6,11.3,13.2c3.6,4.7,5.5,10.5,5.4,16.5c-0.1,2.4-0.3,5.2,1.5,6.7c1.1,0.7,2.5,1.1,3.8,1.1l48.8,4
		c8.6,0.7,18.1,1.9,23.7,8.4c2.6,3.1,4.8,7.5,8.8,7.9c1.7,0.1,3.4-0.6,5.2-0.7c4.4-0.3,8.2,3,10.7,6.7c3.7,5.6,5.4,12.3,4.7,18.9
		c-0.4,4.2-1.7,8.3-2,12.4c-1.1,16,12.5,29.8,12.7,45.8c0.2,9.4-4.3,18.2-8.7,26.5c7,10.6,1.3,24.8,4.1,37.3
		c2.7,11.8,12.5,21.1,15,32.9c1.1,5.4,1.2,12.1,6,14.9c2.1,1,4.4,1.5,6.8,1.4c14.1,0.2,28-3,40.6-9.2c5.9-2.9,12-7.3,13.1-13.8
		c0.8-5.3-1.8-11.1,0.9-15.7c3.2-5.4,11.4-5,16.1-9.1c7.6-6.7,1.7-19.6,4.8-29.3c2.8-8.7,12.4-13.4,17.1-21.2c1.9-3.4,3.2-7,4-10.8
		c2.2-9,3.5-18.2,4-27.5c0.1-5.6,0.5-11.2,1.2-16.8c5.1-31.8,36.5-53.1,46.7-83.6c1-2.9,1.4-6.8-1.2-8.5c-1.5-0.7-3.3-0.9-4.9-0.5
		l-22.5,2.8c-2.8,0.4-5.8,0.7-8.3-0.5s-4.4-4.4-3-6.9c3.8-6.9-4-15.7-7.5-22.8c-9.4-19.1-20.6-37.3-33.5-54.3
		c-0.8-0.9-1.3-2-1.5-3.2l6.4,0.2c-2.2-7.7-5.7-16.2-13.2-19c-4.2-1.6-8.9-1-13.4-0.8C-6647,6386-6660.9,6384-6673.7,6382z"/>
	<path id="Path_1123" class="st1" d="M-6634.1,6207.6c3.4,3.6,7.2,7.4,12.1,8c8.7,1.1,14.9-7.8,18.8-15.6c0.3,4.1,3.8,7.3,8,7.1
		c2.1-0.4,4.2-1.2,6-2.3c17.2-9.4,36.4-14.3,55.9-14.5c-0.4-3.1,1.6-5.9,4.6-6.6c4-0.8,7.6,2.6,9.5,6.2s3.1,7.7,6.2,10.4
		c3,2.7,8.9,2.6,10.1-1.3c1.2-3.7-2.7-6.9-5.9-9.1c-3.2-2.2-6.6-6.2-4.4-9.5c16.4-3.6,33-7.3,49.8-8c2.9,0.1,5.7-0.4,8.4-1.4
		c2.6-1.3,4.6-4.1,3.9-6.9c-7.5,1.8-15.3-1.2-19.8-7.5c23.3-1.9,48.1-3.6,68.8,7.4c2.5,5.3-10.2,9.8-6.8,14.6
		c1.1,1.5,3.2,1.7,5.1,1.7c14.4,0.3,28.8,0.5,43-1.6c5.2-0.8,10.4-1.9,15.6-1.3c8.7,1.1,16.1,6.9,24.6,8.7c3.5,0.8,7.4,0.8,10.3-1.2
		c2.9-2,4.2-6.6,1.8-9.3c8-7.9,21.4-5.9,32-2.2s20.7,9.9,31.9,10.7c8,0.6,16.2-1.6,24.2-0.2c5,0.9,9.6,3.1,14.5,4.5
		c9.2,2.6,19,2,28.6,2.2c24.5,0.3,48.7,5.1,71.4,14.2c3,1,5.7,2.6,7.9,4.7c2.1,2.3,3.2,5.8,1.8,8.5l-23.5-3.4
		c2.2,4.4,7.9,5.1,12.6,6.6s9.5,6.6,6.7,10.7c-5-1.6-9.6,3.4-12.2,8.1s-5.6,10.2-10.9,10.5c-4.7,0.3-10.4-3.8-13.5-0.2
		c4.3,5.4,7.9,11.2,10.9,17.4c3,6.3,5.2,14.3,1.1,20c-0.6,1-1.6,1.8-2.8,2.2c-3.4,0.9-5.5-3.3-8-5.8c-3-3.1-7.6-4-11.7-5.5
		c-4.1-1.5-8.4-4.4-8.8-8.7c-0.2-2.7,1.2-5.2,2.3-7.7c1.8-4.2,2.5-8.8,2.3-13.4c-0.2-3.7-1.3-7.5-3.9-10.1s-7.2-3.4-10-1
		c-1.3,1.1-2.4,2.9-4.1,2.9c-3,0.1-5.4-5.2-7.8-3.4c0.3,1.9-0.1,3.9-1.1,5.6c-7.3,6.3-18.5,3.7-27.9,5.9c-4.5,1.3-8.7,3.1-12.7,5.6
		c-1.5,0.6-2.8,1.7-3.6,3.1c-1.2,2.3,0.1,5.2,2.2,6.7c2.2,1.3,4.6,2.2,7.2,2.5c11.5,2.2,23.1,5.5,32.1,12.9c9,7.4,15,19.5,12.1,30.8
		l-22.6-21.6c0.9,9.1,1.3,18.2,1.5,27.3c0.1,1.8-0.1,3.6-0.7,5.2c-1.6,3.6-6,4.8-9.8,5.5c-4.2,0.8-6.9,4.8-6.1,9
		c0.1,0.3,0.1,0.6,0.2,0.9c1.4,4.4,4.7,7.9,7.9,11.3c3.1,3.4,6.2,7.4,6.6,12c0.4,4.6-3.1,9.8-7.7,9.5c-3.5-0.2-6.1-3.4-7.6-6.6
		c-1.5-3.2-2.4-6.7-4.6-9.4c-6.8-8.2-22.1-4.7-28.2-13.4c-3.2,3.6-4.2,8.5-2.8,13.1c2.8-1.8,6.7-0.1,8.8,2.5s3.1,5.9,4.8,8.8
		c2.3,3.9,5.8,7.4,6.2,11.9c-0.1,1.7-0.1,3.4,0.1,5.1c0.6,2.7,2.9,4.7,4.5,7c3.7,5.3,3.5,12.6,1.1,18.6s-6.7,11-11,15.9
		c-7.4,8.5-15,17-23.9,24c-2.5,2-5.2,4-6.8,6.8c-1.6,2.8-1.7,6.8,0.8,8.9c-1.7,0.1-4.8,0.9-6.5,1c-0.6-6.9-0.7-13.9-0.4-20.8
		c-6.8-3.3-14.1,5.5-13.3,13c0.9,7.5,6.3,13.5,10.2,20c2.8,4.7,4.9,10.3,4,15.7c-0.9,5.4-5.8,10.5-11.3,10
		c-8.8-0.8-12.4-13.3-21.1-14.8c-0.8-0.2-1.6-0.1-2.3,0.2c-1.3,0.7-1.5,2.4-1.6,3.9c-0.4,7.2-0.7,14.7,2.1,21.3
		c4.1,9.7,14.7,17.9,12.5,28.2c-12-5.6-18.2-19-21.1-31.9c-2.8-12.9-3.3-26.5-8.4-38.7c-3.9,4.9-12,0.9-15.5-4.3
		c-3.3-4.9-5.4-10.6-8.6-15.6c-3.2-5-8.2-9.4-14.1-9.7c-6.2-0.3-11.6,4-16.4,8c-3.9,3.3-7.9,6.8-10.2,11.3c-3.3,6.7-2.5,14.5-2.6,22
		c-0.2,8.1-1.9,16.6-7.4,22.4c-5.5,5.9-15.6,7.9-21.7,2.6c-3.2-2.8-4.7-6.9-6.1-10.9c-6.6-19.2-12-38.7-16.4-58.5
		c-1,4.5-5,10.3-8.8,7.7c-0.9-0.7-1.5-1.6-2-2.6c-7.1-12-20.2-19.2-33.4-23.5s-27.2-6.3-40.2-11.1c-7.3-2.7-14.3-6.1-20.9-10.4
		c-3.4,5-3.8,11.4-1,16.8c2.9,5.1,9.5,8.1,15.1,6.3c2.9-0.9,5.4-2.9,8.2-3.9c2.9-1,6.8-0.5,8,2.3c1.2,2.7-0.6,5.9,0.3,8.7
		c1.4,4.2,7.8,4.6,10,8.4c1.7,2.9,0.3,6.7-2.1,9c-2.4,2.3-5.5,3.6-8.4,5.2c-9.4,5.2-16.1,14.1-24.3,21.1c-8.2,6.9-19.8,12-29.5,7.5
		c2.3-11.8-11.7-20.5-14.3-32.2c-0.9-3.9-0.4-8-1.6-11.7c-1.8-5.5-6.6-9.2-10.6-13.3c-9.7-10.2-14.9-24-14.4-38.1
		c0.2-4.9,1.1-9.8,0-14.5c-1.1-4.7-5-9.3-9.9-9.1c-11.1,0.5-25,1.3-30.9-8.1c-2.1-3.4-3-8.3,0-10.9c2.1-1.8,5.2-1.7,8-1.4l25,2.5
		c5.8,0.6,12.2,1,17.2-2c5-3,7.2-11.2,2.5-14.8c-3.4-2.6-9.5-2.5-10.5-6.7c-0.8-3.5,3-7.4,0.9-10.3c-1.5-2.1-4.8-1.5-6.9,0.1
		c-2,1.6-3.5,3.8-5.8,5c-4,2.1-8.7,0.1-13-1.2c-4.3-1.3-10-1.5-12.1,2.5c-2.3,4.5,2.1,10.3-0.2,14.8c-3.1,5.9-13.4,2.5-17.7,7.6
		c-4.9,5.8,3.3,14.5,1.7,21.9c-4.3,2.1-9.4,1.8-13.5-0.8c-4-2.7-6.2-7.4-5.6-12.2c0.4-3.3,2.2-6.8,1-9.9c-0.9-2.6-3.5-4.1-5.9-5.4
		l-24.3-13.4c-2.3,4.2,0.6,9.4,4.2,12.5c3.6,3.1,8,5.5,10.4,9.6c3.1,5.9,1,13.2-4.8,16.7c-0.7,0.5-1.6,0.6-2.4,0.4
		c-0.8-0.5-1.3-1.2-1.6-2.1c-4.3-11-10.7-21.8-21-27.5s-25-4.5-31.8,5.1c-1.6,2.3-2.7,4.9-4.1,7.3c-7.4,12.9-23.3,19-38.1,18.6
		c-1.5,0.1-2.9-0.3-4.2-1c-2.4-1.7-2.3-5.2-1.9-8.1l1.6-12.3c0.3-2.5,0.8-5.2,2.7-6.7c2.7-2.2,6.7-0.8,10.2-0.9
		c5.4-0.3,10.1-3.9,11.8-9.1c1.4-5.2-0.1-10.8-4.1-14.5c-1.6-1.5-3.8-3.4-2.9-5.4c0.7-1.1,1.8-1.9,3.1-2.1
		c6.3-1.8,12.9-2.3,19.1-4.5c6.2-2.2,12.2-6.6,13.6-12.9c0.4-2,0.7-4.3,2.4-5.3c0.9-0.4,1.8-0.6,2.8-0.6c6.9-1,12-7.1,11.6-14.1
		c3-2.1,7.1-0.5,10,1.7c2.9,2.2,5.4,5.1,8.9,6.1c6.5,1.8,12.8-4,19.5-4c2.8,0,5.8,1,8.4,0c2.7-1,4.3-3.7,6.4-5.7
		c2.1-2,5.7-3.2,7.6-1.1l-1.6-12.1c6.6,1.7,13.7,0.4,19.3-3.5l-21.1-7.1c-0.7-0.2-1.4-0.5-2-1.1c-1.5-1.7,0-4.2,1.2-6.1
		c3-4.5,3.5-11.9-1.4-14.1c-3.3-1.5-7.2,0.3-10.4,2.1l-15.4,8.6c-0.5,2.9,3.1,4.6,5.3,6.6c3.7,3.3,4,8.9,0.7,12.6
		c-1.7,1.9-4,3-6.5,3c2.1,2.7,2.8,6.1,2,9.4l-10.4,0.7c-1.2,0.2-2.4,0-3.4-0.7c-1.1-1-1-2.7-1.2-4.2c-0.6-3.5-4.1-6-7.6-6.6
		c-3.5-0.6-7.1,0.2-10.6,1c-1.5,0.5-3.1,0.5-4.6-0.1c-0.8-0.5-1.5-1.3-1.8-2.3c-1.5-3.7-0.1-8.1,2.4-11.2s5.8-5.5,8.8-8.1
		c7.2-6.3,12.5-14.5,15.3-23.7c5.7-2.4,11.6-5.6,17.3-8c8.8-4.4,18.6-6.4,28.4-5.5l19.3,0.4c5.7,0.1,11.6,0.2,16.9,2.4
		c5.3,2.2,9.9,6.9,10.3,12.6c0.2,1.3-0.2,2.6-1.2,3.5c-0.7,0.4-1.6,0.6-2.4,0.6C-6626.5,6206.1-6628.8,6207.4-6634.1,6207.6z"/>
	<path id="Path_1124" class="st1" d="M-6787.9,6268.1c1.5-1.5,2.1-3.6,1.5-5.7c-3.7-1.4-8-0.6-10.9,2.1c-1.1,1.2-2.1,2.5-2.9,3.9
		c-2.5,4.1-4.8,9.1-3.3,13.7c0.2,1,0.9,1.9,1.8,2.4c0.7,0.3,1.4,0.4,2.1,0.3c2.8,0,5.6-0.2,8.4-0.5c1.7-0.2,3.7-0.7,4.3-2.3
		c0.9-2.1-1.2-4.4-0.6-6.6c0.4-1,1-1.8,1.8-2.6c0.8-0.7,1.2-1.8,1.1-2.8c-0.2-1-1.8-1.6-2.4-0.7"/>
	<path id="Path_1125" class="st1" d="M-6773.4,6249.3c-2.5-0.6-5-0.7-7.6-0.5c-0.6,0-1.1,0.1-1.6,0.4c-0.5,0.4-0.8,0.9-1,1.4
		c-1.1,3.6,0.7,7.4,4.2,8.8c0.9,0.2,1.8,0.6,2.6,1c2.1,1.7,0.8,5.1,1.2,7.7c0.5,3,3.4,5.5,2.8,8.5c-0.4,2.4-2.9,4.2-2.5,6.6
		c0.4,2.5,3.6,3.2,6.1,3.4c1.5,0.3,2.9,0.1,4.3-0.5c1.4-0.9,2.3-2.3,2.7-3.9c1-3.1,1.5-6.3,1.3-9.5c0-1.5-0.4-2.9-1.1-4.2
		c-0.8-1-1.6-2-2.5-2.9C-6769.4,6260.2-6764.3,6251.9-6773.4,6249.3z"/>
	<path id="Path_1126" class="st2" d="M-6142.6,6686.5c0,0-367.4-210.9-525.6-170.9c0,0-335.2,36.1-374.1,115.4
		c0,0-106.6-333-145.4-344.1"/>
	<path id="Path_1127" class="st2" d="M-7042.3,6631c61.6-164.3,616.6-346.3,616.6-346.3c-78.8,20-242.5,230.9-242.5,230.9
		s-346.3-252-519.5-228.7c0,0,762.6,25,1045.1,399.6"/>
	<circle id="Ellipse_91" class="st3" cx="-7187.7" cy="6286.9" r="16.1"/>
	<circle id="Ellipse_92" class="st3" cx="-7042.3" cy="6631" r="16.1"/>
	<circle id="Ellipse_93" class="st3" cx="-6425.6" cy="6284.6" r="16.1"/>
	<circle id="Ellipse_94" class="st3" cx="-6142.6" cy="6686.5" r="16.1"/>
	<circle id="Ellipse_95" class="st3" cx="-6668.2" cy="6515.5" r="16.1"/>
</g>
</svg>
